<?xml version="1.0" encoding="UTF-8"?>
<svg width="1200" height="400" viewBox="0 0 1200 400" xmlns="http://www.w3.org/2000/svg">
  <!-- Background -->
  <rect width="1200" height="400" fill="#0a0a0a"/>
  
  <!-- Stars pattern -->
  <g opacity="0.8">
    <rect x="50" y="50" width="4" height="4" fill="#e0d5ff"/>
    <rect x="150" y="80" width="4" height="4" fill="#e0d5ff"/>
    <rect x="250" y="30" width="4" height="4" fill="#e0d5ff"/>
    <rect x="350" y="120" width="4" height="4" fill="#e0d5ff"/>
    <rect x="450" y="60" width="4" height="4" fill="#e0d5ff"/>
    <rect x="550" y="100" width="4" height="4" fill="#e0d5ff"/>
    <rect x="650" y="40" width="4" height="4" fill="#e0d5ff"/>
    <rect x="750" y="90" width="4" height="4" fill="#e0d5ff"/>
    <rect x="850" y="130" width="4" height="4" fill="#e0d5ff"/>
    <rect x="950" y="70" width="4" height="4" fill="#e0d5ff"/>
    <rect x="1050" y="110" width="4" height="4" fill="#e0d5ff"/>
    <rect x="1150" y="50" width="4" height="4" fill="#e0d5ff"/>
    
    <rect x="80" y="180" width="4" height="4" fill="#e0d5ff"/>
    <rect x="180" y="220" width="4" height="4" fill="#e0d5ff"/>
    <rect x="280" y="160" width="4" height="4" fill="#e0d5ff"/>
    <rect x="380" y="250" width="4" height="4" fill="#e0d5ff"/>
    <rect x="480" y="190" width="4" height="4" fill="#e0d5ff"/>
    <rect x="580" y="230" width="4" height="4" fill="#e0d5ff"/>
    <rect x="680" y="170" width="4" height="4" fill="#e0d5ff"/>
    <rect x="780" y="210" width="4" height="4" fill="#e0d5ff"/>
    <rect x="880" y="260" width="4" height="4" fill="#e0d5ff"/>
    <rect x="980" y="200" width="4" height="4" fill="#e0d5ff"/>
    <rect x="1080" y="240" width="4" height="4" fill="#e0d5ff"/>
    
    <rect x="120" y="320" width="4" height="4" fill="#e0d5ff"/>
    <rect x="220" y="350" width="4" height="4" fill="#e0d5ff"/>
    <rect x="320" y="300" width="4" height="4" fill="#e0d5ff"/>
    <rect x="420" y="370" width="4" height="4" fill="#e0d5ff"/>
    <rect x="520" y="330" width="4" height="4" fill="#e0d5ff"/>
    <rect x="620" y="360" width="4" height="4" fill="#e0d5ff"/>
    <rect x="720" y="310" width="4" height="4" fill="#e0d5ff"/>
    <rect x="820" y="350" width="4" height="4" fill="#e0d5ff"/>
    <rect x="920" y="380" width="4" height="4" fill="#e0d5ff"/>
    <rect x="1020" y="340" width="4" height="4" fill="#e0d5ff"/>
  </g>
  
  <!-- Purple galaxy nebula effect using pixelated gradient -->
  <defs>
    <radialGradient id="nebula1" cx="0.3" cy="0.4" r="0.4">
      <stop offset="0%" stop-color="#bd00ff" stop-opacity="0.6"/>
      <stop offset="50%" stop-color="#bd00ff" stop-opacity="0.3"/>
      <stop offset="100%" stop-color="#bd00ff" stop-opacity="0.1"/>
    </radialGradient>
    <radialGradient id="nebula2" cx="0.7" cy="0.6" r="0.3">
      <stop offset="0%" stop-color="#00ff88" stop-opacity="0.4"/>
      <stop offset="50%" stop-color="#00ff88" stop-opacity="0.2"/>
      <stop offset="100%" stop-color="#00ff88" stop-opacity="0.1"/>
    </radialGradient>
  </defs>
  
  <!-- Nebula clouds -->
  <ellipse cx="360" cy="160" rx="200" ry="120" fill="url(#nebula1)" opacity="0.7"/>
  <ellipse cx="840" cy="240" rx="180" ry="100" fill="url(#nebula2)" opacity="0.6"/>
  
  <!-- Hexagon pattern overlay -->
  <g opacity="0.3" fill="none" stroke="#bd00ff" stroke-width="2">
    <!-- Top hexagons -->
    <polygon points="100,80 120,70 140,80 140,100 120,110 100,100"/>
    <polygon points="180,60 200,50 220,60 220,80 200,90 180,80"/>
    <polygon points="260,100 280,90 300,100 300,120 280,130 260,120"/>
    
    <!-- Middle hexagons -->
    <polygon points="900,140 920,130 940,140 940,160 920,170 900,160"/>
    <polygon points="980,120 1000,110 1020,120 1020,140 1000,150 980,140"/>
    <polygon points="1060,160 1080,150 1100,160 1100,180 1080,190 1060,180"/>
    
    <!-- Bottom hexagons -->
    <polygon points="200,300 220,290 240,300 240,320 220,330 200,320"/>
    <polygon points="800,320 820,310 840,320 840,340 820,350 800,340"/>
    <polygon points="1000,340 1020,330 1040,340 1040,360 1020,370 1000,360"/>
  </g>
  
  <!-- Additional geometric patterns -->
  <g opacity="0.2" fill="#00ff88">
    <!-- Small pixel squares scattered -->
    <rect x="400" y="50" width="8" height="8"/>
    <rect x="600" y="80" width="8" height="8"/>
    <rect x="800" y="120" width="8" height="8"/>
    <rect x="300" y="180" width="8" height="8"/>
    <rect x="700" y="220" width="8" height="8"/>
    <rect x="500" y="280" width="8" height="8"/>
    <rect x="900" y="320" width="8" height="8"/>
  </g>
  
  <!-- Bright accent pixels -->
  <g fill="#bd00ff">
    <rect x="200" y="120" width="6" height="6"/>
    <rect x="500" y="150" width="6" height="6"/>
    <rect x="800" y="180" width="6" height="6"/>
    <rect x="350" y="220" width="6" height="6"/>
    <rect x="650" y="260" width="6" height="6"/>
    <rect x="950" y="290" width="6" height="6"/>
  </g>
  
  <!-- Grid overlay for pixel art effect -->
  <defs>
    <pattern id="pixelGrid" width="20" height="20" patternUnits="userSpaceOnUse">
      <rect width="20" height="20" fill="none" stroke="#1a1a1a" stroke-width="0.5" opacity="0.3"/>
    </pattern>
  </defs>
  <rect width="1200" height="400" fill="url(#pixelGrid)" opacity="0.2"/>
  
  <!-- Animated elements for dynamic feel -->
  <g opacity="0.6">
    <rect x="100" y="200" width="4" height="4" fill="#00ff88">
      <animate attributeName="opacity" values="0.3;1;0.3" dur="3s" repeatCount="indefinite"/>
    </rect>
    <rect x="600" y="100" width="4" height="4" fill="#bd00ff">
      <animate attributeName="opacity" values="0.2;0.8;0.2" dur="4s" repeatCount="indefinite"/>
    </rect>
    <rect x="1000" y="250" width="4" height="4" fill="#e0d5ff">
      <animate attributeName="opacity" values="0.4;1;0.4" dur="2.5s" repeatCount="indefinite"/>
    </rect>
  </g>
</svg>