<svg viewBox="0 0 400 400" xmlns="http://www.w3.org/2000/svg" style="image-rendering: pixelated;">
  <defs>
    <!-- Quantum glow gradient -->
    <radialGradient id="quantumGlow" cx="50%" cy="50%" r="50%">
      <stop offset="0%" stop-color="#bd00ff" stop-opacity="0.8"/>
      <stop offset="100%" stop-color="#bd00ff" stop-opacity="0.2"/>
    </radialGradient>
    
    <!-- DNA gradient -->
    <linearGradient id="dnaGradient" x1="0%" y1="0%" x2="100%" y2="100%">
      <stop offset="0%" stop-color="#00ff88"/>
      <stop offset="50%" stop-color="#bd00ff"/>
      <stop offset="100%" stop-color="#00ff88"/>
    </linearGradient>
  </defs>
  
  <!-- Background -->
  <rect width="400" height="400" fill="#0a0a0a"/>
  
  <!-- Lab floor -->
  <rect x="0" y="350" width="400" height="50" fill="#1a1a1a"/>
  
  <!-- Lab equipment background -->
  <rect x="20" y="250" width="360" height="100" fill="#1a1a1a" stroke="#bd00ff" stroke-width="2"/>
  
  <!-- Scientist character (pixel art style) -->
  <!-- Head -->
  <rect x="180" y="180" width="40" height="40" fill="#e0d5ff"/>
  <!-- Hair -->
  <rect x="180" y="180" width="40" height="12" fill="#bd00ff"/>
  <!-- Lab coat -->
  <rect x="160" y="220" width="80" height="80" fill="#e0d5ff"/>
  <!-- Arms -->
  <rect x="140" y="240" width="20" height="40" fill="#e0d5ff"/>
  <rect x="240" y="240" width="20" height="40" fill="#e0d5ff"/>
  <!-- Hands on controls -->
  <rect x="140" y="280" width="12" height="12" fill="#e0d5ff"/>
  <rect x="248" y="280" width="12" height="12" fill="#e0d5ff"/>
  
  <!-- Safety goggles -->
  <rect x="185" y="190" width="30" height="15" fill="#1a1a1a" stroke="#bd00ff" stroke-width="1"/>
  
  <!-- Quantum computer terminal -->
  <rect x="40" y="270" width="80" height="60" fill="#1a1a1a" stroke="#00ff88" stroke-width="2"/>
  <!-- Screen -->
  <rect x="50" y="280" width="60" height="40" fill="#0a0a0a"/>
  
  <!-- DNA helix (stylized pixel art) -->
  <g transform="translate(280, 150)">
    <!-- DNA backbone -->
    <rect x="0" y="0" width="4" height="100" fill="url(#dnaGradient)"/>
    <rect x="20" y="0" width="4" height="100" fill="url(#dnaGradient)"/>
    
    <!-- DNA base pairs (horizontal lines) -->
    <rect x="4" y="10" width="16" height="3" fill="#00ff88"/>
    <rect x="4" y="25" width="16" height="3" fill="#bd00ff"/>
    <rect x="4" y="40" width="16" height="3" fill="#00ff88"/>
    <rect x="4" y="55" width="16" height="3" fill="#bd00ff"/>
    <rect x="4" y="70" width="16" height="3" fill="#00ff88"/>
    <rect x="4" y="85" width="16" height="3" fill="#bd00ff"/>
  </g>
  
  <!-- Quantum effects - floating particles -->
  <circle cx="100" cy="100" r="3" fill="#bd00ff" opacity="0.8">
    <animate attributeName="opacity" values="0.3;1;0.3" dur="2s" repeatCount="indefinite"/>
  </circle>
  <circle cx="150" cy="80" r="2" fill="#00ff88" opacity="0.6">
    <animate attributeName="opacity" values="0.2;0.8;0.2" dur="1.5s" repeatCount="indefinite"/>
  </circle>
  <circle cx="320" cy="120" r="4" fill="#e0d5ff" opacity="0.7">
    <animate attributeName="opacity" values="0.4;1;0.4" dur="2.5s" repeatCount="indefinite"/>
  </circle>
  
  <!-- Atom structure (simplified pixel art) -->
  <g transform="translate(80, 120)">
    <!-- Nucleus -->
    <rect x="10" y="10" width="8" height="8" fill="#bd00ff"/>
    <!-- Electron orbits -->
    <circle cx="14" cy="14" r="12" fill="none" stroke="#00ff88" stroke-width="1" opacity="0.6"/>
    <circle cx="14" cy="14" r="20" fill="none" stroke="#bd00ff" stroke-width="1" opacity="0.4"/>
    <!-- Electrons -->
    <circle cx="26" cy="14" r="2" fill="#e0d5ff">
      <animateTransform attributeName="transform" type="rotate" values="0 14 14;360 14 14" dur="3s" repeatCount="indefinite"/>
    </circle>
    <circle cx="2" cy="14" r="2" fill="#00ff88">
      <animateTransform attributeName="transform" type="rotate" values="0 14 14;-360 14 14" dur="4s" repeatCount="indefinite"/>
    </circle>
  </g>
  
  <!-- Holographic display -->
  <rect x="60" y="60" width="100" height="80" fill="#0a0a0a" stroke="#bd00ff" stroke-width="1" opacity="0.8"/>
  <!-- Quantum field visualization -->
  <g transform="translate(70, 70)">
    <rect x="0" y="0" width="80" height="2" fill="#bd00ff" opacity="0.6"/>
    <rect x="0" y="10" width="80" height="2" fill="#00ff88" opacity="0.5"/>
    <rect x="0" y="20" width="80" height="2" fill="#bd00ff" opacity="0.7"/>
    <rect x="0" y="30" width="80" height="2" fill="#00ff88" opacity="0.4"/>
    <rect x="0" y="40" width="80" height="2" fill="#bd00ff" opacity="0.8"/>
    <rect x="0" y="50" width="80" height="2" fill="#00ff88" opacity="0.6"/>
  </g>
  
  <!-- Molecular structures on lab equipment screen -->
  <g transform="translate(55, 285)">
    <!-- Simple molecular diagram -->
    <circle cx="10" cy="10" r="3" fill="#00ff88"/>
    <circle cx="25" cy="10" r="3" fill="#bd00ff"/>
    <circle cx="40" cy="10" r="3" fill="#00ff88"/>
    <line x1="13" y1="10" x2="22" y2="10" stroke="#e0d5ff" stroke-width="1"/>
    <line x1="28" y1="10" x2="37" y2="10" stroke="#e0d5ff" stroke-width="1"/>
    
    <!-- Quantum tunnel effect visualization -->
    <rect x="0" y="20" width="50" height="15" fill="#1a1a1a"/>
    <rect x="5" y="25" width="10" height="5" fill="#bd00ff" opacity="0.6"/>
    <rect x="35" y="25" width="10" height="5" fill="#bd00ff" opacity="0.6"/>
    <line x1="15" y1="27" x2="35" y2="27" stroke="#00ff88" stroke-width="1" stroke-dasharray="2,2"/>
  </g>
  
  <!-- Quantum entanglement visualization -->
  <g transform="translate(250, 80)">
    <circle cx="0" cy="0" r="4" fill="#bd00ff"/>
    <circle cx="40" cy="20" r="4" fill="#bd00ff"/>
    <path d="M 4 2 Q 20 -10 36 18" stroke="#00ff88" stroke-width="2" fill="none" opacity="0.7">
      <animate attributeName="opacity" values="0.3;1;0.3" dur="2s" repeatCount="indefinite"/>
    </path>
  </g>
  
  <!-- Lab equipment controls -->
  <rect x="300" y="280" width="80" height="50" fill="#1a1a1a" stroke="#bd00ff" stroke-width="1"/>
  <!-- Control buttons -->
  <rect x="310" y="290" width="15" height="8" fill="#00ff88"/>
  <rect x="330" y="290" width="15" height="8" fill="#bd00ff"/>
  <rect x="350" y="290" width="15" height="8" fill="#e0d5ff"/>
  
  <!-- Status indicators -->
  <circle cx="315" cy="310" r="3" fill="#00ff88">
    <animate attributeName="opacity" values="0.3;1;0.3" dur="1s" repeatCount="indefinite"/>
  </circle>
  <circle cx="335" cy="310" r="3" fill="#bd00ff"/>
  <circle cx="355" cy="310" r="3" fill="#e0d5ff"/>
</svg>