<svg viewBox="0 0 400 400" xmlns="http://www.w3.org/2000/svg" style="image-rendering: pixelated;">
  <defs>
    <!-- Community glow gradient -->
    <radialGradient id="communityGlow" cx="50%" cy="50%" r="50%">
      <stop offset="0%" stop-color="#00ff88" stop-opacity="0.8"/>
      <stop offset="100%" stop-color="#00ff88" stop-opacity="0.2"/>
    </radialGradient>
    
    <!-- Building gradient -->
    <linearGradient id="buildingGradient" x1="0%" y1="0%" x2="100%" y2="100%">
      <stop offset="0%" stop-color="#1a1a1a"/>
      <stop offset="50%" stop-color="#bd00ff"/>
      <stop offset="100%" stop-color="#1a1a1a"/>
    </linearGradient>
  </defs>
  
  <!-- Background -->
  <rect width="400" height="400" fill="#0a0a0a"/>
  
  <!-- Ground -->
  <rect x="0" y="350" width="400" height="50" fill="#1a1a1a"/>
  
  <!-- Community buildings/houses -->
  <!-- House 1 -->
  <rect x="50" y="280" width="60" height="70" fill="url(#buildingGradient)"/>
  <polygon points="50,280 80,250 110,280" fill="#bd00ff"/>
  <rect x="65" y="300" width="12" height="20" fill="#00ff88"/> <!-- Door -->
  <rect x="85" y="295" width="15" height="15" fill="#e0d5ff"/> <!-- Window -->
  
  <!-- House 2 -->
  <rect x="130" y="290" width="50" height="60" fill="url(#buildingGradient)"/>
  <polygon points="130,290 155,265 180,290" fill="#bd00ff"/>
  <rect x="140" y="310" width="10" height="15" fill="#00ff88"/>
  <rect x="155" y="305" width="12" height="12" fill="#e0d5ff"/>
  
  <!-- House 3 -->
  <rect x="200" y="270" width="70" height="80" fill="url(#buildingGradient)"/>
  <polygon points="200,270 235,240 270,270" fill="#bd00ff"/>
  <rect x="220" y="300" width="15" height="25" fill="#00ff88"/>
  <rect x="245" y="290" width="18" height="18" fill="#e0d5ff"/>
  
  <!-- Community garden/park -->
  <rect x="290" y="320" width="80" height="30" fill="#00ff88" opacity="0.3"/>
  <!-- Trees (pixel art style) -->
  <rect x="310" y="310" width="8" height="15" fill="#1a1a1a"/> <!-- Trunk -->
  <rect x="305" y="295" width="18" height="18" fill="#00ff88"/> <!-- Leaves -->
  <rect x="340" y="315" width="6" height="12" fill="#1a1a1a"/>
  <rect x="337" y="303" width="12" height="12" fill="#00ff88"/>
  
  <!-- Scientist character in center -->
  <!-- Head -->
  <rect x="180" y="180" width="40" height="40" fill="#e0d5ff"/>
  <!-- Hair -->
  <rect x="180" y="180" width="40" height="12" fill="#bd00ff"/>
  <!-- Body -->
  <rect x="160" y="220" width="80" height="80" fill="#00ff88"/>
  <!-- Arms -->
  <rect x="140" y="240" width="20" height="40" fill="#e0d5ff"/>
  <rect x="240" y="240" width="20" height="40" fill="#e0d5ff"/>
  <!-- Hands holding tablet -->
  <rect x="140" y="280" width="12" height="12" fill="#e0d5ff"/>
  <rect x="155" y="275" width="25" height="15" fill="#1a1a1a"/> <!-- Tablet -->
  <rect x="157" y="277" width="21" height="11" fill="#bd00ff"/> <!-- Screen -->
  
  <!-- Legs -->
  <rect x="175" y="300" width="20" height="30" fill="#1a1a1a"/>
  <rect x="205" y="300" width="20" height="30" fill="#1a1a1a"/>
  
  <!-- Community members (smaller pixel people) -->
  <!-- Person 1 -->
  <rect x="80" y="320" width="12" height="12" fill="#e0d5ff"/> <!-- Head -->
  <rect x="77" y="332" width="18" height="18" fill="#bd00ff"/> <!-- Body -->
  
  <!-- Person 2 -->
  <rect x="320" y="325" width="10" height="10" fill="#e0d5ff"/>
  <rect x="318" y="335" width="14" height="15" fill="#00ff88"/>
  
  <!-- Person 3 -->
  <rect x="250" y="315" width="15" height="15" fill="#e0d5ff"/>
  <rect x="245" y="330" width="25" height="20" fill="#bd00ff"/>
  
  <!-- Data visualization/network connections -->
  <!-- Connection lines between houses (representing community network) -->
  <line x1="80" y1="250" x2="155" y2="240" stroke="#00ff88" stroke-width="2" opacity="0.6"/>
  <line x1="155" y1="240" x2="235" y2="230" stroke="#00ff88" stroke-width="2" opacity="0.6"/>
  <line x1="235" y1="230" x2="330" y2="270" stroke="#00ff88" stroke-width="2" opacity="0.6"/>
  
  <!-- Data points/nodes -->
  <circle cx="80" cy="250" r="4" fill="#bd00ff">
    <animate attributeName="opacity" values="0.5;1;0.5" dur="2s" repeatCount="indefinite"/>
  </circle>
  <circle cx="155" cy="240" r="4" fill="#00ff88">
    <animate attributeName="opacity" values="0.5;1;0.5" dur="1.5s" repeatCount="indefinite"/>
  </circle>
  <circle cx="235" cy="230" r="4" fill="#bd00ff">
    <animate attributeName="opacity" values="0.5;1;0.5" dur="2.5s" repeatCount="indefinite"/>
  </circle>
  <circle cx="330" cy="270" r="4" fill="#00ff88">
    <animate attributeName="opacity" values="0.5;1;0.5" dur="1.8s" repeatCount="indefinite"/>
  </circle>
  
  <!-- Technology/IoT sensors -->
  <rect x="120" y="200" width="8" height="8" fill="#bd00ff"/>
  <rect x="280" y="180" width="8" height="8" fill="#00ff88"/>
  <rect x="350" y="220" width="8" height="8" fill="#e0d5ff"/>
  
  <!-- Wireless signals from sensors -->
  <g transform="translate(124, 200)">
    <path d="M 0 4 Q 8 0 16 4" stroke="#bd00ff" stroke-width="1" fill="none" opacity="0.6"/>
    <path d="M -4 4 Q 8 -4 20 4" stroke="#bd00ff" stroke-width="1" fill="none" opacity="0.4"/>
  </g>
  
  <!-- Weather monitoring station -->
  <rect x="60" y="150" width="20" height="30" fill="#1a1a1a"/>
  <rect x="67" y="145" width="6" height="8" fill="#00ff88"/> <!-- Solar panel -->
  <rect x="65" y="155" width="10" height="15" fill="#bd00ff" opacity="0.8"/> <!-- Screen -->
  
  <!-- Wind indicator -->
  <line x1="70" y1="140" x2="70" y2="130" stroke="#e0d5ff" stroke-width="2"/>
  <polygon points="70,130 75,135 65,135" fill="#e0d5ff"/>
  
  <!-- Air quality sensors floating particles -->
  <circle cx="150" cy="120" r="2" fill="#00ff88" opacity="0.7">
    <animate attributeName="cy" values="120;110;120" dur="3s" repeatCount="indefinite"/>
  </circle>
  <circle cx="180" cy="100" r="2" fill="#bd00ff" opacity="0.6">
    <animate attributeName="cy" values="100;90;100" dur="2.5s" repeatCount="indefinite"/>
  </circle>
  <circle cx="220" cy="130" r="2" fill="#e0d5ff" opacity="0.8">
    <animate attributeName="cy" values="130;120;130" dur="3.5s" repeatCount="indefinite"/>
  </circle>
  
  <!-- Community dashboard/display -->
  <rect x="300" y="100" width="80" height="60" fill="#1a1a1a" stroke="#00ff88" stroke-width="2"/>
  <rect x="310" y="110" width="60" height="40" fill="#0a0a0a"/>
  
  <!-- Dashboard data (simplified charts) -->
  <g transform="translate(315, 115)">
    <!-- Bar chart showing community metrics -->
    <rect x="0" y="20" width="8" height="10" fill="#00ff88"/>
    <rect x="10" y="15" width="8" height="15" fill="#bd00ff"/>
    <rect x="20" y="18" width="8" height="12" fill="#00ff88"/>
    <rect x="30" y="10" width="8" height="20" fill="#bd00ff"/>
    <rect x="40" y="22" width="8" height="8" fill="#00ff88"/>
    
    <!-- Status indicators -->
    <circle cx="5" cy="5" r="2" fill="#00ff88"/>
    <circle cx="15" cy="5" r="2" fill="#00ff88"/>
    <circle cx="25" cy="5" r="2" fill="#bd00ff"/>
    <circle cx="35" cy="5" r="2" fill="#00ff88"/>
  </g>
  
  <!-- Community network visualization -->
  <g transform="translate(30, 50)">
    <!-- Central hub -->
    <circle cx="50" cy="50" r="8" fill="#bd00ff" opacity="0.8"/>
    <!-- Connected nodes -->
    <circle cx="20" cy="30" r="4" fill="#00ff88"/>
    <circle cx="80" cy="35" r="4" fill="#00ff88"/>
    <circle cx="30" cy="70" r="4" fill="#00ff88"/>
    <circle cx="70" cy="75" r="4" fill="#00ff88"/>
    
    <!-- Connection lines -->
    <line x1="50" y1="50" x2="20" y2="30" stroke="#e0d5ff" stroke-width="1" opacity="0.6"/>
    <line x1="50" y1="50" x2="80" y2="35" stroke="#e0d5ff" stroke-width="1" opacity="0.6"/>
    <line x1="50" y1="50" x2="30" y2="70" stroke="#e0d5ff" stroke-width="1" opacity="0.6"/>
    <line x1="50" y1="50" x2="70" y2="75" stroke="#e0d5ff" stroke-width="1" opacity="0.6"/>
  </g>
  
  <!-- Local solutions symbols -->
  <!-- Recycling symbol -->
  <g transform="translate(350, 150)">
    <path d="M 0 10 Q 5 0 10 10 Q 15 20 10 30 Q 5 40 0 30" stroke="#00ff88" stroke-width="2" fill="none"/>
    <circle cx="5" cy="20" r="2" fill="#00ff88"/>
  </g>
  
  <!-- Solar panel -->
  <rect x="20" y="200" width="25" height="15" fill="#bd00ff" opacity="0.8"/>
  <line x1="20" y1="205" x2="45" y2="205" stroke="#00ff88" stroke-width="1"/>
  <line x1="20" y1="210" x2="45" y2="210" stroke="#00ff88" stroke-width="1"/>
</svg>